<?xml version="1.0" encoding="UTF-8" standalone="no"?>
<!-- Created with Inkscape (http://www.inkscape.org/) -->

<svg
   version="1.1"
   id="svg1"
   width="404.79102"
   height="476.22131"
   viewBox="0 0 404.79102 476.22131"
   sodipodi:docname="DataClubLogoNoBG.png"
   inkscape:version="1.4.2 (f4327f4, 2025-05-13)"
   inkscape:export-filename="DataClubLogo2.svg"
   inkscape:export-xdpi="96"
   inkscape:export-ydpi="96"
   inkscape:dataloss="true"
   xmlns:inkscape="http://www.inkscape.org/namespaces/inkscape"
   xmlns:sodipodi="http://sodipodi.sourceforge.net/DTD/sodipodi-0.dtd"
   xmlns:xlink="http://www.w3.org/1999/xlink"
   xmlns="http://www.w3.org/2000/svg"
   xmlns:svg="http://www.w3.org/2000/svg">
  <defs
     id="defs1">
    <linearGradient
       id="linearGradient62"
       inkscape:collect="always">
      <stop
         style="stop-color:#c79400;stop-opacity:1;"
         offset="0"
         id="stop61" />
      <stop
         style="stop-color:#e4ae21;stop-opacity:1;"
         offset="0.6565097"
         id="stop62" />
    </linearGradient>
    <linearGradient
       id="linearGradient58"
       inkscape:collect="always">
      <stop
         style="stop-color:#ba8a00;stop-opacity:1;"
         offset="0"
         id="stop58" />
      <stop
         style="stop-color:#e2ae1e;stop-opacity:1;"
         offset="0.61495841"
         id="stop59" />
    </linearGradient>
    <linearGradient
       inkscape:collect="always"
       xlink:href="#linearGradient58"
       id="linearGradient59"
       x1="52.163074"
       y1="212.73576"
       x2="456.9538"
       y2="212.73576"
       gradientUnits="userSpaceOnUse"
       gradientTransform="translate(-52.162108,-31.087874)" />
    <linearGradient
       inkscape:collect="always"
       xlink:href="#linearGradient62"
       id="linearGradient61"
       x1="77.328293"
       y1="492.23694"
       x2="432.52362"
       y2="492.23694"
       gradientUnits="userSpaceOnUse"
       gradientTransform="translate(-52.162108,-59.638672)" />
  </defs>
  <sodipodi:namedview
     id="namedview1"
     pagecolor="#ffffff"
     bordercolor="#000000"
     borderopacity="0.25"
     inkscape:showpageshadow="2"
     inkscape:pageopacity="0.0"
     inkscape:pagecheckerboard="0"
     inkscape:deskcolor="#d1d1d1"
     inkscape:zoom="0.94568283"
     inkscape:cx="128.47859"
     inkscape:cy="319.87469"
     inkscape:window-width="1920"
     inkscape:window-height="991"
     inkscape:window-x="-9"
     inkscape:window-y="-9"
     inkscape:window-maximized="1"
     inkscape:current-layer="svg1">
    <inkscape:page
       x="0"
       y="0"
       width="404.79102"
       height="476.22131"
       id="page2"
       margin="0"
       bleed="0" />
  </sodipodi:namedview>
  <path
     style="font-weight:bold;font-size:120px;line-height:0;font-family:Sans;-inkscape-font-specification:'Sans Bold';letter-spacing:0px;fill:url(#linearGradient61);stroke-width:0.750957"
     d="m 107.60759,432.68616 q 0,12.1875 -5.56641,21.85547 -5.566398,9.60937 -14.062498,14.76562 -6.38672,3.86719 -14.0039,5.39063 -7.61719,1.52344 -18.04688,1.52344 H 25.166185 v -87.2461 h 31.640627 q 10.66406,0 18.39844,1.81641 7.73437,1.75781 13.00781,5.03906 9.02344,5.50781 14.179688,14.88281 5.21484,9.31641 5.21484,21.97266 z m -23.261718,-0.17578 q 0,-8.61328 -3.16406,-14.70703 -3.10547,-6.15235 -9.90235,-9.60938 -3.45703,-1.69922 -7.08984,-2.28515 -3.57422,-0.64454 -10.83984,-0.64454 h -5.683597 v 54.60938 h 5.683597 q 8.02734,0 11.77734,-0.70313 3.75,-0.76171 7.32422,-2.69531 6.15234,-3.51562 9.02344,-9.375 2.87109,-5.91797 2.87109,-14.58984 z m 121.054688,43.71094 h -23.26172 l -6.03516,-17.63672 h -32.34375 l -6.03515,17.63672 H 115.049 l 32.22656,-87.2461 H 173.174 Z m -34.7461,-33.63282 -10.72265,-31.28906 -10.72266,31.28906 z m 115.54688,-36.73828 h -27.24609 v 70.3711 h -22.5 v -70.3711 h -27.2461 v -16.875 h 76.99219 z m 94.16016,70.3711 h -23.26172 l -6.03516,-17.63672 h -32.34375 l -6.03516,17.63672 h -22.67578 l 32.22657,-87.2461 h 25.89843 z M 345.6154,442.5885 334.89275,411.29944 324.17009,442.5885 Z"
     id="text8"
     aria-label="DATA"
     inkscape:label="text8" />
  <path
     id="path1"
     style="display:inline;fill:url(#linearGradient59);fill-opacity:1"
     inkscape:label="path1"
     d="M 239.21289,-3.1038072e-7 V 51.898437 h 33.45898 V 75.082036 H 190.73828 L 147.46484,0.13085869 H 73.767582 V 50.845703 H 106.17187 V 77.189456 H 1.8877046e-7 V 127.77149 H 23.183595 V 235.52344 H 2.1093752 v 50.8457 H 105.38086 v 24.5 H 74.632812 l -0.0762,52.42774 113.810548,-0.52734 v -51.10938 h -30.56055 v -25.02734 h 79.5625 l 37.70313,75.37695 h 48.97265 v -75.37695 h 42.94141 l 37.80471,-37.80469 V 115.39063 L 365.73437,76.333986 H 324.04492 V 50.845703 h 31.87695 V -3.1038072e-7 Z M 273,126.73438 271.41406,234.06446 209.55859,126.92774 Z m 51.02148,0 24.32032,0.26367 6.73828,11.66992 v 90.10938 l -6.47266,8.45898 -24.58594,-0.52734 z m -248.761708,0.79297 h 30.136708 v 107.85937 l -30.136708,-0.52929 z m 81.158198,2.64453 61.26172,106.10742 -61.26172,-0.36523 z" />
</svg>
